<?xml version="1.0" standalone="no"?><!DOCTYPE svg PUBLIC "-//W3C//DTD SVG 1.1//EN" "http://www.w3.org/Graphics/SVG/1.1/DTD/svg11.dtd"><svg t="1666315362948" class="icon" viewBox="0 0 1024 1024" version="1.1" xmlns="http://www.w3.org/2000/svg" p-id="4810" xmlns:xlink="http://www.w3.org/1999/xlink" width="300" height="300"><path d="M513.4 528m-450 0a450 450 0 1 0 900 0 450 450 0 1 0-900 0Z" fill="#F3F4A8" opacity=".6" p-id="4811"></path><path d="M540 673.2c-23.3 12.3-52.3 18.5-87 18.5-44.8 0-80.7-14.4-107.7-43.3s-40.4-66.7-40.4-113.6c0-50.4 15.2-91.1 45.5-122.2 30.3-31.1 68.8-46.6 115.4-46.6 29.9 0 54.6 4.3 74.3 13v39.3c-22.6-12.6-47.5-18.9-74.7-18.9-36.2 0-65.5 12.1-88 36.3-22.5 24.2-33.7 56.5-33.7 96.9 0 38.4 10.5 69 31.5 91.7 21 22.8 48.6 34.2 82.7 34.2 31.6 0 59-7 82.2-21.1v35.8zM721.9 686.4h-36V414.1c-2.8 2.8-6.8 6-12.2 9.6-5.3 3.6-11.4 7.1-18 10.7-6.7 3.5-13.7 6.8-21.1 9.9-7.4 3.1-14.6 5.5-21.6 7.3V415c7.9-2.2 16.3-5.2 25.2-8.9 8.9-3.7 17.6-7.9 26.1-12.5 8.6-4.6 16.7-9.4 24.3-14.5 7.6-5.1 14.2-10 19.8-14.8H722v322.1z" fill="#FED501" p-id="4812"></path></svg>