<?xml version="1.0" standalone="no"?><!DOCTYPE svg PUBLIC "-//W3C//DTD SVG 1.1//EN" "http://www.w3.org/Graphics/SVG/1.1/DTD/svg11.dtd"><svg t="1674871976745" class="icon" viewBox="0 0 1024 1024" version="1.1" xmlns="http://www.w3.org/2000/svg" p-id="9772" xmlns:xlink="http://www.w3.org/1999/xlink" width="48" height="48"><path d="M865.09 892H158.91a91.74 91.74 0 0 1-91.64-91.6V293.68A91.74 91.74 0 0 1 158.91 202h74.75a27 27 0 0 1 0 53.91h-74.75a37.77 37.77 0 0 0-37.73 37.73V800.4a37.77 37.77 0 0 0 37.73 37.73h706.18a37.77 37.77 0 0 0 37.73-37.73V293.68A37.77 37.77 0 0 0 865.09 256h-80.4a27 27 0 1 1 0-53.91h80.4a91.74 91.74 0 0 1 91.64 91.64V800.4a91.74 91.74 0 0 1-91.64 91.6z" fill="#142E4F" p-id="9773"></path><path d="M622.44 256H401.56a27 27 0 0 1 0-53.91h220.88a27 27 0 1 1 0 53.91zM929.77 457H94.23a27 27 0 1 1 0-53.91h835.54a27 27 0 1 1 0 53.91zM317.94 320.63a27 27 0 0 1-27-26.95V158.91a27 27 0 0 1 53.91 0v134.77a27 27 0 0 1-26.91 26.95zM706.06 320.63a27 27 0 0 1-26.95-26.95V158.91a27 27 0 0 1 53.91 0v134.77a27 27 0 0 1-26.96 26.95z" fill="#142E4F" p-id="9774"></path><path d="M808.48 595.55h-593a27 27 0 1 1 0-53.9h593a27 27 0 1 1 0 53.9zM490.82 724.93h-275.3a27 27 0 1 1 0-53.91h275.3a27 27 0 1 1 0 53.91z" fill="#FF9600" p-id="9775"></path></svg>