<?xml version="1.0" standalone="no"?><!DOCTYPE svg PUBLIC "-//W3C//DTD SVG 1.1//EN" "http://www.w3.org/Graphics/SVG/1.1/DTD/svg11.dtd"><svg t="1666748156016" class="icon" viewBox="0 0 1170 1024" version="1.1" xmlns="http://www.w3.org/2000/svg" p-id="3650" xmlns:xlink="http://www.w3.org/1999/xlink" width="228.515625" height="200"><path d="M0 984.990476h1170.285714v39.009524H0zM585.142857 877.714286a351.085714 351.085714 0 0 0 351.085714-351.085715C936.228571 228.205714 585.142857 0 585.142857 0S234.057143 245.76 234.057143 526.628571a351.085714 351.085714 0 0 0 351.085714 351.085715zM374.686476 534.235429l224.304762-292.571429a19.504762 19.504762 0 0 1 23.79581-5.656381 19.504762 19.504762 0 0 1 10.532571 22.040381l-42.715429 179.44381 149.406477-8.387048a19.504762 19.504762 0 0 1 17.16419 30.817524l-214.552381 302.323809a19.504762 19.504762 0 0 1-15.993905 8.192 21.26019 21.26019 0 0 1-7.606857-1.560381 19.504762 19.504762 0 0 1-11.507809-21.455238l34.523428-190.171428-150.771809 8.387047a19.504762 19.504762 0 0 1-18.334476-10.337524 19.504762 19.504762 0 0 1 1.755428-21.065142z" fill="#367EE8" p-id="3651"></path><path d="M565.638095 516.87619a19.504762 19.504762 0 0 1 19.504762 23.01562l-23.210667 128.146285L702.171429 470.25981l-134.972953 7.606857a19.504762 19.504762 0 0 1-16.188952-7.021715 19.504762 19.504762 0 0 1-3.900953-16.969142l27.501715-115.858286-142.774857 186.270476 133.022476-7.41181z" fill="#367EE8" p-id="3652"></path></svg>