<?xml version="1.0" standalone="no"?><!DOCTYPE svg PUBLIC "-//W3C//DTD SVG 1.1//EN" "http://www.w3.org/Graphics/SVG/1.1/DTD/svg11.dtd"><svg t="1666318309034" class="icon" viewBox="0 0 1024 1024" version="1.1" xmlns="http://www.w3.org/2000/svg" p-id="2389" xmlns:xlink="http://www.w3.org/1999/xlink" width="300" height="300"><path d="M817.230769 925.538462c-23.630769 0-45.292308-9.846154-63.015384-25.6L508.061538 653.784615c-11.815385-11.815385-11.815385-29.538462 0-41.353846s29.538462-11.815385 41.353847 0l246.153846 246.153846c11.815385 11.815385 31.507692 11.815385 41.353846 0 5.907692-5.907692 7.876923-13.784615 7.876923-21.661538s-3.938462-15.753846-7.876923-21.661539L592.738462 571.076923c-11.815385-11.815385-11.815385-29.538462 0-41.353846s29.538462-11.815385 41.353846 0l246.153846 246.153846c15.753846 15.753846 25.6 39.384615 25.6 63.015385s-9.846154 45.292308-25.6 63.015384c-17.723077 13.784615-39.384615 23.630769-63.015385 23.63077zM435.2 413.538462l-165.415385-165.415385c11.815385-29.538462 5.907692-63.015385-17.723077-86.646154L196.923077 106.338462c-9.846154-9.846154-27.569231-9.846154-39.384615 0L86.646154 177.230769c-11.815385 11.815385-11.815385 29.538462 0 41.353846l55.138461 55.138462C157.538462 287.507692 177.230769 295.384615 196.923077 295.384615c9.846154 0 21.661538-1.969231 31.507692-5.907692l165.415385 165.415385c5.907692 5.907692 13.784615 7.876923 21.661538 7.876923s15.753846-1.969231 21.661539-7.876923c9.846154-9.846154 9.846154-29.538462-1.969231-41.353846zM183.138462 230.4L149.661538 196.923077 177.230769 169.353846l33.476923 33.476923c7.876923 7.876923 7.876923 19.692308 0 27.569231-5.907692 7.876923-19.692308 7.876923-27.56923 0z" fill="#12B9FF" p-id="2390"></path><path d="M214.646154 925.538462C177.230769 925.538462 143.753846 911.753846 118.153846 886.153846c-25.6-25.6-39.384615-61.046154-39.384615-98.461538s15.753846-70.892308 43.323077-96.492308l356.430769-315.076923c-21.661538-80.738462 1.969231-167.384615 63.015385-226.461539 59.076923-59.076923 141.784615-82.707692 222.523076-63.015384 9.846154 1.969231 17.723077 9.846154 21.661539 21.661538s0 21.661538-7.876923 29.538462l-41.353846 41.353846c-31.507692 31.507692-31.507692 80.738462 0 112.246154 31.507692 31.507692 80.738462 31.507692 112.246154 0l41.353846-41.353846c7.876923-7.876923 17.723077-9.846154 29.538461-7.876923 9.846154 1.969231 17.723077 11.815385 21.661539 21.661538 19.692308 80.738462-3.938462 165.415385-63.015385 222.523077-61.046154 61.046154-145.723077 82.707692-228.430769 61.046154L315.076923 884.184615c-25.6 25.6-59.076923 41.353846-96.492308 41.353847h-3.938461zM689.230769 137.846154c-41.353846 3.938462-78.769231 21.661538-108.307692 51.2-49.230769 49.230769-64.984615 120.123077-41.353846 185.107692 3.938462 11.815385 0 23.630769-7.876923 31.507692L161.476923 734.523077C145.723077 748.307692 137.846154 768 137.846154 789.661538c0 21.661538 7.876923 41.353846 21.661538 55.138462 13.784615 13.784615 33.476923 21.661538 55.138462 21.661538 21.661538 0 39.384615-7.876923 55.138461-23.630769L618.338462 492.307692c7.876923-7.876923 19.692308-9.846154 31.507692-7.876923 64.984615 23.630769 135.876923 5.907692 185.107692-41.353846C864.492308 413.538462 882.215385 374.153846 886.153846 334.769231c-55.138462 49.230769-139.815385 49.230769-191.015384-3.938462-53.169231-53.169231-55.138462-137.846154-5.907693-192.984615z" fill="#4069FF" p-id="2391"></path><path d="M645.907692 169.353846c-25.6 57.107692-13.784615 128 33.476923 175.261539 29.538462 29.538462 68.923077 47.261538 112.246154 47.261538 21.661538 0 43.323077-3.938462 63.015385-13.784615-7.876923 19.692308-19.692308 37.415385-33.476923 51.2-29.538462 29.538462-68.923077 47.261538-112.246154 47.261538-17.723077 0-35.446154-3.938462-53.169231-9.846154-5.907692-1.969231-9.846154-1.969231-15.753846-1.96923-13.784615 0-25.6 5.907692-35.446154 13.784615L256 829.046154c-9.846154 11.815385-25.6 17.723077-39.384615 17.723077-15.753846 0-29.538462-5.907692-41.353847-15.753846-11.815385-11.815385-17.723077-25.6-17.723076-41.353847s5.907692-29.538462 17.723076-39.384615l370.215385-326.892308c15.753846-13.784615 19.692308-33.476923 13.784615-53.16923-19.692308-59.076923-5.907692-122.092308 37.415385-165.415385 13.784615-15.753846 31.507692-27.569231 49.230769-35.446154" fill="#E6F3FF" p-id="2392"></path></svg>