<?xml version="1.0" standalone="no"?><!DOCTYPE svg PUBLIC "-//W3C//DTD SVG 1.1//EN" "http://www.w3.org/Graphics/SVG/1.1/DTD/svg11.dtd"><svg t="1666318211292" class="icon" viewBox="0 0 1024 1024" version="1.1" xmlns="http://www.w3.org/2000/svg" p-id="7212" xmlns:xlink="http://www.w3.org/1999/xlink" width="300" height="300"><path d="M913.5 193.9H260.4c-25.8 0-46.9 21.1-46.9 46.9v150.8h56.3V250.2h634.3v366.2H343v56.3h164v99.7H400c-15.5 0-28.1 12.6-28.1 28.1 0 15.5 12.6 28.1 28.1 28.1h372.1c15.5 0 28.1-12.6 28.1-28.1 0-15.6-12.6-28.1-28.1-28.1H664.2v-99.7h249.2c25.8 0 46.9-21.1 46.9-46.9v-385c0.1-25.8-21-46.9-46.8-46.9M607.9 772.4h-44.6v-99.7h44.6v99.7z" fill="#009974" p-id="7213"></path><path d="M299.5 391.6H107.8c-24 0-43.6 19.5-43.6 43.6v350c0 24 19.5 43.5 43.6 43.5h191.7c24 0 43.6-19.5 43.6-43.5v-350c-0.1-24.1-19.6-43.6-43.6-43.6m-95.9 406.3c-10.4 0-18.8-8.4-18.8-18.8 0-10.3 8.4-18.8 18.8-18.8 10.3 0 18.8 8.4 18.8 18.8s-8.4 18.8-18.8 18.8m83.1-62.7H120.5V447.8h166.3v287.4z" fill="#009974" p-id="7214"></path><path d="M343 537.3h561v42.2H343z" fill="#009974" opacity=".6" p-id="7215"></path></svg>