<?xml version="1.0" standalone="no"?><!DOCTYPE svg PUBLIC "-//W3C//DTD SVG 1.1//EN" "http://www.w3.org/Graphics/SVG/1.1/DTD/svg11.dtd"><svg t="1676284573938" class="icon" viewBox="0 0 1024 1024" version="1.1" xmlns="http://www.w3.org/2000/svg" p-id="3441" xmlns:xlink="http://www.w3.org/1999/xlink" width="256" height="256"><path d="M512 512m-512 0a512 512 0 1 0 1024 0 512 512 0 1 0-1024 0Z" fill="#FFDA44" p-id="3442"></path><path d="M745.897308 680.082839h-43.876312a14.625437 14.625437 0 0 1 0-29.250874h29.250874v-29.250875a14.625437 14.625437 0 0 1 29.250875 0v43.876312a14.669314 14.669314 0 0 1-14.625437 14.625437z" fill="#32C4EE" p-id="3443"></path><path d="M321.759623 446.075841h-29.250875v29.250875a14.625437 14.625437 0 0 1-29.250875 0v-43.876313a14.669314 14.669314 0 0 1 14.625438-14.625437h43.876312a14.625437 14.625437 0 0 1 0 29.250875z" fill="#32C4EE" p-id="3444"></path><path d="M826.337213 343.697779h-37.294865a48.585703 48.585703 0 0 1 0.731272 7.312719v351.010498a43.876312 43.876312 0 0 1-6.069557 21.938156H826.337213a21.938156 21.938156 0 0 1 0 43.876312H182.817968a21.938156 21.938156 0 0 1 0-43.876312h57.258587a43.876312 43.876312 0 0 1-6.069556-21.938156V351.010498a48.585703 48.585703 0 0 1 0.731271-7.312719H182.817968a21.938156 21.938156 0 0 1 0-43.876312h643.519245a21.938156 21.938156 0 0 1 0 43.876312z" fill="#FFFFFF" p-id="3445"></path><path d="M702.020996 526.515747a14.296365 14.296365 0 0 1-10.310934-4.314504l-0.365636 0.365636a36.563594 36.563594 0 1 0 0 51.774048l0.365636 0.365636A14.296365 14.296365 0 0 1 702.020996 570.392059a14.669314 14.669314 0 0 1 14.625437 14.625437 14.464558 14.464558 0 0 1-7.897736 12.870385 65.814468 65.814468 0 1 1 0-98.867957A14.464558 14.464558 0 0 1 716.646433 511.890309a14.669314 14.669314 0 0 1-14.625437 14.625438z" fill="#8ED420" p-id="3446"></path><path d="M519.203028 614.268371a58.201928 58.201928 0 0 1-30.567164-8.702135A14.588874 14.588874 0 0 1 460.701278 599.642934V453.38856a14.625437 14.625437 0 0 1 29.250875 0v51.774048A58.50175 58.50175 0 1 1 519.203028 614.268371z m0-87.752624a29.250875 29.250875 0 1 0 29.250875 29.250874 29.250875 29.250875 0 0 0-29.250875-29.250874z" fill="#FF8F44" p-id="3447"></path><path d="M424.137685 614.268371h-14.625438a14.625437 14.625437 0 0 1-14.259801-11.334714 65.858345 65.858345 0 1 1 6.800828-103.548097A14.515747 14.515747 0 0 1 409.512247 497.264872a14.669314 14.669314 0 0 1 14.625438 14.625437v73.127187a14.625437 14.625437 0 0 1 0 29.250875z m-65.814469-102.378062a36.563594 36.563594 0 1 0 36.563594 36.563594 36.563594 36.563594 0 0 0-36.563594-36.563594z" fill="#8ED420" p-id="3448"></path></svg>