<?xml version="1.0" standalone="no"?><!DOCTYPE svg PUBLIC "-//W3C//DTD SVG 1.1//EN" "http://www.w3.org/Graphics/SVG/1.1/DTD/svg11.dtd"><svg t="1666316067429" class="icon" viewBox="0 0 1024 1024" version="1.1" xmlns="http://www.w3.org/2000/svg" p-id="18387" xmlns:xlink="http://www.w3.org/1999/xlink" width="300" height="300"><path d="M395.434667 570.197333c25.088 25.088 25.088 50.005333 0 75.093334l-74.752 74.581333c-24.917333 25.088-50.005333 25.088-74.922667 0-25.088-25.088-25.088-50.005333 0-75.093333l74.752-74.752c24.917333-24.917333 50.005333-24.917333 74.922667 0z" fill="#8CC8FE" p-id="18388"></path><path d="M653.824 461.824a265.216 265.216 0 0 1-34.133333 333.653333l-37.205334 37.205334L133.12 382.634667l37.546667-37.034667a265.045333 265.045333 0 0 1 333.653333-34.133333l78.677333-78.677334L563.2 214.357333A79.36 79.36 0 0 1 676.010667 102.4l187.733333 187.733333A79.36 79.36 0 0 1 750.933333 402.090667l-18.773333-18.944-78.677333 78.677333z" fill="#4B96F9" p-id="18389"></path><path d="M295.253333 412.330667a26.453333 26.453333 0 0 1-28.16-44.885334A166.912 166.912 0 0 1 443.733333 360.448a26.453333 26.453333 0 0 1-25.088 46.762667 114.176 114.176 0 0 0-124.074666 5.12z" fill="#A5CAFC" p-id="18390"></path></svg>