<?xml version="1.0" standalone="no"?><!DOCTYPE svg PUBLIC "-//W3C//DTD SVG 1.1//EN" "http://www.w3.org/Graphics/SVG/1.1/DTD/svg11.dtd"><svg t="1666319122184" class="icon" viewBox="0 0 1024 1024" version="1.1" xmlns="http://www.w3.org/2000/svg" p-id="1790" xmlns:xlink="http://www.w3.org/1999/xlink" width="300" height="300"><path d="M376.4 293.3h32.8v666.2h-32.8zM729.8 622.3h32.8v337.3h-32.8z" fill="#1296db" p-id="1791"></path><path d="M388.8 876.1l-4.7-1.9C218.3 808.4 123.5 715.4 102.3 598c-10.2-56.8-3-119.2 21.6-185.5 19.6-52.8 50.2-108.5 91-165.4 56.4-78.6 118.6-140.6 151.3-171.2l-0.9-0.9 14.6-11.6c7.9-6.3 17.9-3.9 22.9 2.1l0.9 1.2c232 226 327.7 417.7 284.5 569.7-12.2 42.8-35.4 82-69.2 116.7-26.6 27.3-59.8 51.8-98.7 72.8-65.6 35.5-124.2 48.7-126.7 49.2l-4.8 1z m1-777.3c-31.5 29.3-92.7 90.1-148.2 167.4-87.9 122.5-123.9 232.2-107 326 18.8 104.4 105.2 188.4 256.8 249.6 14.9-3.8 62.8-17.4 114.2-45.3 81-44 131.8-101 151.2-169.4 17.7-62.5 8.3-134.7-28-214.5-42.7-94-123.1-199.5-239-313.8z" fill="#1296db" p-id="1792"></path><path d="M205.535 538.417l21.222-25.01 176.671 149.91-21.222 25.01zM673.702 748.932L690.23 720.6l64.267 37.49-16.528 28.332zM377.769 505.542l131.18-150.98 24.76 21.514-131.18 150.98zM731.596 729.87l66.913-70.64 23.813 22.557-66.913 70.64z" fill="#1296db" p-id="1793"></path><path d="M737.7 875.5c-65.7 0-128.1-35.6-160.7-95.1-4.4-7.9-1.5-17.9 6.5-22.3 7.9-4.4 17.9-1.5 22.3 6.5 32.6 59.5 101.4 89.8 167.3 73.8 39-9.5 72-33.6 92.8-68 20.9-34.4 27.1-74.8 17.6-113.9-9.5-39.1-33.7-72.2-68-93.1-34.3-20.9-74.7-27.2-113.7-17.7-8.8 2.1-17.7-3.3-19.8-12.1-2.1-8.8 3.3-17.7 12.1-19.8 47.5-11.6 96.7-3.9 138.5 21.6s71.2 65.8 82.8 113.4 4 96.9-21.4 138.7c-25.4 41.9-65.6 71.3-113.1 82.8-14.5 3.5-28.9 5.2-43.2 5.2z" fill="#1296db" p-id="1794"></path></svg>