<?xml version="1.0" standalone="no"?><!DOCTYPE svg PUBLIC "-//W3C//DTD SVG 1.1//EN" "http://www.w3.org/Graphics/SVG/1.1/DTD/svg11.dtd"><svg t="1666693979929" class="icon" viewBox="0 0 1024 1024" version="1.1" xmlns="http://www.w3.org/2000/svg" p-id="2292" xmlns:xlink="http://www.w3.org/1999/xlink" width="200" height="200"><path d="M512 512m-512 0a512 512 0 1 0 1024 0 512 512 0 1 0-1024 0Z" fill="#F69B47" p-id="2293"></path><path d="M656.64 578.752a100.16 100.16 0 1 1 0.128 200.32 100.16 100.16 0 0 1-0.064-200.32z m56.64 156.8a12.544 12.544 0 0 0 0-17.6l-23.68-23.68a50.048 50.048 0 1 0-17.6 17.728l23.552 23.552c4.864 4.864 12.8 4.864 17.728 0z m-89.984-67.712a22.272 22.272 0 1 1 44.544 0 22.272 22.272 0 0 1-44.544 0z m112.384-149.952a178.368 178.368 0 0 0-136.064 18.816l14.72-46.4c3.584-9.344 5.888-18.688 9.408-28.032a2.56 2.56 0 0 1 2.368-2.368H677.504c23.424 1.216 39.744 12.864 51.456 33.92 3.712 7.488 5.952 15.68 6.72 24.064z m-181.888 57.6A177.344 177.344 0 0 0 512 693.248c-2.56-7.616-4.608-15.232-7.488-22.912-15.232-47.936-30.4-95.872-46.72-143.744-1.28-2.368 0-3.52 1.088-5.888a1715.2 1715.2 0 0 0 52.608-43.264c1.216-1.152 1.216-1.152 2.368-1.152 0 0 1.152 0 2.304 1.152 17.536 15.232 35.072 30.4 52.608 44.416 1.216 1.216 1.216 2.368 1.216 3.52-5.504 16.768-10.88 33.472-16.192 50.112zM398.08 339.52c0-64.32 51.392-116.928 114.56-116.928 64.256 0 115.712 52.608 115.712 116.928s-51.456 116.928-114.56 116.928S398.08 403.84 398.08 339.52z m1.152 120.384c2.304 0 3.52 1.216 3.52 2.368 31.552 97.024 61.952 195.2 93.44 292.288 0 1.152 0 1.152 1.28 2.304H353.6a61.888 61.888 0 0 1-56.064-31.552 72 72 0 0 1-8.192-26.88V524.16c0-22.208 8.192-39.744 26.88-52.608a61.76 61.76 0 0 1 37.376-11.712h45.632z" fill="#FFFFFF" p-id="2294"></path></svg>