<?xml version="1.0" standalone="no"?><!DOCTYPE svg PUBLIC "-//W3C//DTD SVG 1.1//EN" "http://www.w3.org/Graphics/SVG/1.1/DTD/svg11.dtd"><svg t="1666315003689" class="icon" viewBox="0 0 1024 1024" version="1.1" xmlns="http://www.w3.org/2000/svg" p-id="17006" xmlns:xlink="http://www.w3.org/1999/xlink" width="300" height="300"><path d="M190.577778 833.422222C13.274074 656.118519 13.274074 367.881481 190.577778 189.62963 367.881481 12.325926 656.118519 12.325926 834.37037 189.62963c177.303704 177.303704 177.303704 465.540741 0 643.792592-178.251852 178.251852-466.488889 178.251852-643.792592 0z m-73.955556-365.985185c83.437037 3.792593 165.925926-23.703704 231.348148-79.644444L211.437037 251.259259c-54.992593 63.525926-86.281481 138.42963-94.814815 216.177778z m271.170371-120.414815c53.096296-65.422222 75.851852-146.962963 71.111111-229.451852-74.903704 10.42963-146.962963 40.77037-206.696297 92.918519l135.585186 136.533333z m384.948148-135.585185c-73.007407-63.525926-164.02963-95.762963-256-96.711111 6.637037 98.607407-21.807407 197.214815-86.281482 275.911111l81.540741 81.540741 260.740741-260.740741zM472.177778 512l-81.540741-81.540741C312.888889 498.725926 214.281481 530.962963 114.725926 525.274074c2.844444 88.177778 35.081481 175.407407 96.711111 246.518519L472.177778 512z m300.562963 300.562963L634.311111 674.133333c-56.888889 67.318519-83.437037 150.755556-80.592592 233.244445 78.696296-8.533333 155.496296-39.822222 219.022222-94.814815z m-521.481482 0c70.162963 61.62963 157.392593 92.918519 245.570371 96.711111-3.792593-97.659259 28.444444-196.266667 96.711111-274.962963L512 551.822222 251.259259 812.562963z m561.303704-561.303704L551.822222 512l81.540741 81.540741c78.696296-68.266667 177.303704-100.503704 275.911111-96.711111-3.792593-88.177778-35.081481-174.459259-96.711111-245.570371z m94.814815 302.45926c-82.488889-2.844444-165.925926 23.703704-233.244445 79.644444l138.42963 138.42963c54.992593-62.577778 86.281481-139.377778 94.814815-218.074074z m0 0" fill="#0097FF" p-id="17007"></path></svg>