<?xml version="1.0" standalone="no"?><!DOCTYPE svg PUBLIC "-//W3C//DTD SVG 1.1//EN" "http://www.w3.org/Graphics/SVG/1.1/DTD/svg11.dtd"><svg t="1714802696582" class="icon" viewBox="0 0 1024 1024" version="1.1" xmlns="http://www.w3.org/2000/svg" p-id="1534" xmlns:xlink="http://www.w3.org/1999/xlink" width="200" height="200"><path d="M292.522667 492.544a58.538667 58.538667 0 0 1-36.693334 17.066667 60.416 60.416 0 0 1-36.693333-17.066667 697.344 697.344 0 0 1 24.917333-159.744 21.504 21.504 0 0 1-9.386666-21.333333 21.162667 21.162667 0 0 1 15.701333-17.066667v-40.789333l10.752 6.485333v34.133333a21.333333 21.333333 0 0 1 6.656 38.570667 836.266667 836.266667 0 0 1 18.944 92.16 426.666667 426.666667 0 0 1 5.802667 68.266667zM770.048 478.72a25.770667 25.770667 0 0 0-6.997333-17.92 26.112 26.112 0 0 0-18.090667-8.021333 9.898667 9.898667 0 0 1-3.242667 0l-1.194666-3.584s1.024-10.922667 1.365333-17.066667c1.024-18.944 2.389333-38.570667 3.584-57.685333 0-8.021333 1.536-16.213333 2.048-24.234667l-47.786667-13.653333c-1.706667 0-22.528-3.925333-22.528-3.925334C665.6 331.093333 597.333333 324.266667 533.845333 324.266667a848.896 848.896 0 0 0-112.128 6.826666l-12.8 2.389334a480.597333 480.597333 0 0 0-51.2 13.482666l-13.312 4.949334c0 18.261333 2.048 37.034667 3.072 55.296 0 14.848 2.218667 30.037333 3.413334 44.885333l-3.072 0.853333a25.941333 25.941333 0 0 0-25.429334 26.112 158.208 158.208 0 0 0 0 25.429334 132.096 132.096 0 0 0 25.258667 66.389333 20.48 20.48 0 0 0 11.776 9.557333 20.138667 20.138667 0 0 0 15.018667-1.706666c4.096 1.024 12.629333 20.821333 14.336 24.746666 17.066667 35.84 43.690667 80.554667 93.866666 99.157334a178.688 178.688 0 0 0 108.885334 6.997333A177.664 177.664 0 0 0 682.666667 640.341333a248.832 248.832 0 0 0 31.914666-54.442666c1.536-3.072 1.536-6.314667 5.12-6.826667s6.314667 1.877333 9.386667 1.706667a22.186667 22.186667 0 0 0 15.36-10.410667 128 128 0 0 0 25.258667-66.218667 105.642667 105.642667 0 0 0 0-25.429333z" fill="#D1DFF2" p-id="1535"></path><path d="M742.229333 266.069333a42.837333 42.837333 0 0 0-3.072-19.626666 22.016 22.016 0 0 0-9.386666-15.189334 198.826667 198.826667 0 0 0-20.821334-12.629333 230.229333 230.229333 0 0 0-57.344-19.626667 547.84 547.84 0 0 0-131.413333-9.557333 490.325333 490.325333 0 0 0-54.954667 4.778667A252.586667 252.586667 0 0 0 376.661333 221.866667c-10.24 5.973333-17.066667 9.557333-20.48 21.504a372.565333 372.565333 0 0 0-7.338666 80.896v2.56a330.069333 330.069333 0 0 1 54.272-14.336A177.152 177.152 0 0 1 443.733333 307.2a430.933333 430.933333 0 0 1 81.237334-4.437333c32.938667 0 65.877333 0 98.645333 1.365333a693.077333 693.077333 0 0 1 72.021333 9.386667 76.970667 76.970667 0 0 1 17.066667 3.754666l32.256 8.533334c0-13.824 0-45.056-1.194667-58.88z" fill="#D1DFF2" p-id="1536"></path><path d="M882.688 214.186667l-119.466667 69.290666v-9.386666a145.066667 145.066667 0 0 0-3.413333-33.28 43.52 43.52 0 0 0-18.944-27.648 232.789333 232.789333 0 0 0-24.064-13.824 267.946667 267.946667 0 0 0-62.122667-21.504 537.258667 537.258667 0 0 0-108.544-10.24c-9.386667 0-68.266667 2.901333-85.333333 5.290666a273.066667 273.066667 0 0 0-96.597333 30.72 51.2 51.2 0 0 0-29.696 34.133334 260.949333 260.949333 0 0 0-5.802667 44.544l-119.466667-68.266667c8.021333-4.949333 13.824-8.874667 19.797334-12.288l302.08-170.666667a26.794667 26.794667 0 0 1 30.037333 0c102.4 58.197333 204.8 115.541333 307.2 173.397334a153.6 153.6 0 0 1 14.336 9.728z" fill="#D1DFF2" p-id="1537"></path><path d="M398.848 161.962667a11.605333 11.605333 0 1 0 11.605333-11.605334 11.434667 11.434667 0 0 0-11.605333 11.605334z m0 0M316.074667 238.933333A68.266667 68.266667 0 0 1 375.466667 179.029333c13.824-1.877333 3.925333-20.650667-17.066667-16.042666a77.994667 77.994667 0 0 0-59.562667 60.416c-4.778667 20.138667 13.824 31.232 16.213334 16.042666z m0 0M969.728 897.706667a8.192 8.192 0 0 0-5.290667-8.362667l-15.018666-3.754667a96.085333 96.085333 0 0 0-10.752-26.453333l6.826666-11.776a9.898667 9.898667 0 0 0-1.536-10.922667l-15.189333-15.36a10.410667 10.410667 0 0 0-6.656-2.56 9.216 9.216 0 0 0-4.266667 1.024l-11.946666 6.656a96.426667 96.426667 0 0 0-26.112-10.581333l-3.925334-10.922667a9.898667 9.898667 0 0 0-8.704-6.997333h-21.674666a9.898667 9.898667 0 0 0-8.874667 6.656l-4.096 12.458667a95.402667 95.402667 0 0 0-25.258667 10.069333l-12.288-7.68a9.898667 9.898667 0 0 0-4.437333-1.024 9.557333 9.557333 0 0 0-6.485333 2.389333L768 836.266667a9.386667 9.386667 0 0 0-1.536 10.752l6.997333 12.970666a95.914667 95.914667 0 0 0-10.24 24.917334l-13.312 4.096c-3.584 1.194667-8.533333 5.12-8.533333 8.874666v22.016c0 3.754667 4.778667 7.850667 8.362667 8.874667l11.946666 4.096a105.130667 105.130667 0 0 0 10.922667 24.917333l-6.656 12.970667a9.728 9.728 0 0 0 1.706667 10.922667l15.36 15.36a9.728 9.728 0 0 0 6.826666 2.56 8.192 8.192 0 0 0 4.096-1.024l12.8-6.997334a97.109333 97.109333 0 0 0 25.258667 10.752l4.096 12.8c1.024 3.584 4.778667 8.874667 8.533333 8.874667h22.186667c3.754667 0 7.509333-5.290667 8.533333-8.874667l3.925334-11.264a93.696 93.696 0 0 0 26.112-11.264l12.117333 6.314667a7.850667 7.850667 0 0 0 3.925333 0 9.728 9.728 0 0 0 6.826667-2.56l15.36-15.530667a9.898667 9.898667 0 0 0 1.706667-10.922666l-6.485334-11.776a94.208 94.208 0 0 0 10.922667-26.453334l13.824-3.754666a9.045333 9.045333 0 0 0 5.632-8.874667z m-112.810667 66.730666a54.613333 54.613333 0 1 1 54.613334-54.613333 54.613333 54.613333 0 0 1-54.613334 54.613333z" fill="#D1DFF2" p-id="1538"></path><path d="M748.714667 997.546667a11.946667 11.946667 0 0 1-2.048-13.312l8.362666-15.872a114.176 114.176 0 0 1-13.482666-29.696l-14.677334-5.12c-4.437333-1.194667-10.24-6.144-10.24-10.752v-26.624c0-4.608 6.144-9.386667 10.581334-10.752l16.213333-5.12a125.44 125.44 0 0 1 12.629333-30.549334l-8.704-15.701333a11.946667 11.946667 0 0 1 2.048-13.312l18.773334-18.773333a11.093333 11.093333 0 0 1 7.850666-3.072 12.288 12.288 0 0 1 5.461334 1.365333l15.530666 8.874667a120.32 120.32 0 0 1 31.061334-12.288v-1.536c-57.344-27.477333-132.608-53.76-134.314667-54.272s-30.037333 61.098667-42.154667 87.04c-8.192 17.066667-22.528 18.261333-34.133333 2.730666l-34.133333-50.005333c-6.997333-10.069333-14.336-10.752-22.869334-2.048-1.194667 1.365333-12.288 11.264-15.872 11.434667s-14.677333-10.069333-16.042666-11.434667c-8.533333-8.704-14.506667-9.386667-22.869334 2.048s-24.234667 34.133333-32.597333 45.056c-17.066667 22.698667-34.133333 18.944-42.837333 0-12.458667-29.184-34.133333-85.333333-34.133334-85.333333s-125.610667 43.349333-176.469333 77.141333a241.322667 241.322667 0 0 0-111.957333 196.949333h658.261333z" fill="#D1DFF2" p-id="1539"></path><path d="M238.933333 466.261333a61.269333 61.269333 0 0 1-36.864 17.066667 60.586667 60.586667 0 0 1-36.693333-17.066667A697.173333 697.173333 0 0 1 190.464 307.2a21.333333 21.333333 0 0 1 6.314667-38.570667v-41.472l10.581333 6.485334v34.133333a21.333333 21.333333 0 0 1 16.213333 20.821333 20.821333 20.821333 0 0 1-9.557333 17.066667 778.410667 778.410667 0 0 1 18.944 91.989333 429.056 429.056 0 0 1 5.973333 68.266667zM716.8 452.437333a26.282667 26.282667 0 0 0-7.168-18.432A25.941333 25.941333 0 0 0 691.2 426.666667h-3.242667l-1.194666-3.584s1.194667-10.922667 1.365333-17.066667c1.024-18.944 2.56-38.570667 3.584-57.514667 0-8.192 1.536-17.066667 2.218667-24.234666l-48.810667-12.8c-1.706667-0.853333-22.528-4.096-22.528-4.096-10.752-1.536-78.677333-7.850667-142.506667-8.362667a846.336 846.336 0 0 0-111.957333 6.826667l-12.970667 2.389333c-17.066667 3.584-34.133333 8.192-51.2 13.482667l-13.312 4.949333c0 18.432 2.048 37.034667 3.072 55.466667 0 14.848 2.218667 29.866667 3.584 44.885333l-3.242666 0.853333a25.770667 25.770667 0 0 0-25.258667 26.112 124.928 124.928 0 0 0 0 25.258667 130.56 130.56 0 0 0 25.258667 66.389333 19.626667 19.626667 0 0 0 11.605333 9.557334 19.968 19.968 0 0 0 15.018667-1.536c4.266667 1.024 12.629333 20.821333 14.506666 24.576 17.066667 36.010667 43.52 80.554667 93.696 99.157333a178.688 178.688 0 0 0 108.885334 6.997333 178.176 178.176 0 0 0 91.477333-69.973333 258.901333 258.901333 0 0 0 31.914667-54.272c1.365333-3.242667 1.365333-6.314667 4.949333-6.826667s6.485333 1.706667 9.386667 1.536a22.016 22.016 0 0 0 15.36-10.24A130.218667 130.218667 0 0 0 716.8 477.866667a126.634667 126.634667 0 0 0 0-25.429334z" fill="#457EC9" p-id="1540"></path><path d="M688.64 239.786667a48.298667 48.298667 0 0 0-3.072-19.626667 21.845333 21.845333 0 0 0-9.557333-15.189333 198.826667 198.826667 0 0 0-20.821334-12.629334A237.397333 237.397333 0 0 0 597.333333 172.032a556.714667 556.714667 0 0 0-131.413333-9.557333 538.453333 538.453333 0 0 0-54.954667 4.778666 254.122667 254.122667 0 0 0-88.576 27.648c-10.069333 5.802667-17.066667 9.386667-20.48 21.333334a372.565333 372.565333 0 0 0-7.338666 81.408v2.56a317.44 317.44 0 0 1 54.272-14.165334 177.322667 177.322667 0 0 1 40.106666-5.461333 446.634667 446.634667 0 0 1 81.237334-4.437333c32.938667 0 65.877333 0 98.645333 1.365333a645.12 645.12 0 0 1 72.021333 9.557333 65.877333 65.877333 0 0 1 17.066667 3.754667l32.256 8.533333c0-13.994667 0-45.056-1.024-59.050666z" fill="#457EC9" p-id="1541"></path><path d="M828.928 187.733333l-119.466667 69.461334v-9.557334a145.92 145.92 0 0 0-3.413333-33.28A41.642667 41.642667 0 0 0 686.250667 187.733333a193.706667 193.706667 0 0 0-23.04-13.994666 257.194667 257.194667 0 0 0-62.122667-21.333334 536.234667 536.234667 0 0 0-108.373333-10.410666c-9.386667 0-68.266667 2.901333-85.333334 5.461333a268.629333 268.629333 0 0 0-96.597333 30.549333 51.2 51.2 0 0 0-29.696 34.133334 260.949333 260.949333 0 0 0-5.632 43.861333l-119.466667-68.266667c7.850667-4.949333 13.824-8.704 19.797334-12.117333L477.866667 4.608a26.794667 26.794667 0 0 1 30.037333 0c102.4 58.197333 204.8 115.541333 307.2 173.397333 4.437333 2.56 8.533333 5.632 14.506667 9.728z" fill="#457EC9" p-id="1542"></path><path d="M345.088 135.509333a11.605333 11.605333 0 1 0 11.605333-11.605333 11.605333 11.605333 0 0 0-11.605333 11.605333z m0 0M262.314667 212.992a69.12 69.12 0 0 1 59.733333-60.416c13.824-1.877333 3.925333-20.48-17.066667-16.042667a78.506667 78.506667 0 0 0-59.562666 60.416c-4.608 20.138667 13.824 31.402667 16.213333 16.042667z m0 0M915.968 871.253333a7.850667 7.850667 0 0 0-5.290667-8.192l-15.018666-3.754666a91.989333 91.989333 0 0 0-10.410667-26.453334l6.826667-11.776a9.728 9.728 0 0 0-1.365334-10.922666l-15.36-15.36a9.216 9.216 0 0 0-6.656-2.56 8.192 8.192 0 0 0-4.096 1.024l-12.117333 6.485333a95.402667 95.402667 0 0 0-25.941333-10.581333l-3.925334-10.752a10.24 10.24 0 0 0-8.704-7.168h-21.845333a9.898667 9.898667 0 0 0-8.874667 6.826666l-3.925333 12.288a94.208 94.208 0 0 0-25.429333 10.069334l-12.629334-7.338667a9.898667 9.898667 0 0 0-4.437333-1.024 9.216 9.216 0 0 0-6.485333 2.56l-15.36 15.189333a9.898667 9.898667 0 0 0-1.536 10.922667l7.168 12.8a96.426667 96.426667 0 0 0-10.410667 24.917333l-13.312 4.266667c-3.584 1.024-8.533333 4.949333-8.533333 8.704v21.845333c0 3.754667 4.778667 7.68 8.362666 8.704l12.117334 4.096a93.013333 93.013333 0 0 0 10.922666 24.917334l-6.826666 12.970666a9.898667 9.898667 0 0 0 1.706666 10.922667l15.530667 15.36a9.045333 9.045333 0 0 0 6.656 2.56 9.216 9.216 0 0 0 4.266667-1.024l12.629333-6.826667a101.376 101.376 0 0 0 25.429333 10.581334l3.925334 12.8c1.024 3.584 4.778667 8.874667 8.533333 8.874666h22.186667c3.754667 0 7.509333-5.290667 8.704-8.874666l3.925333-11.264a94.890667 94.890667 0 0 0 26.965333-10.922667l12.117334 6.314667a7.850667 7.850667 0 0 0 3.925333 1.024 10.24 10.24 0 0 0 6.997333-2.730667l15.36-15.36a10.24 10.24 0 0 0 1.536-10.922667l-6.485333-11.946666a92.16 92.16 0 0 0 10.922667-26.453334l13.824-3.754666a8.874667 8.874667 0 0 0 5.632-8.704zM803.157333 938.666667a54.613333 54.613333 0 1 1 54.613334-54.613334 54.784 54.784 0 0 1-54.613334 54.613334z" fill="#457EC9" p-id="1543"></path><path d="M695.125333 971.264a12.288 12.288 0 0 1-2.218666-13.482667l8.362666-15.872a121.344 121.344 0 0 1-13.482666-30.378666l-14.677334-5.12c-4.437333-1.365333-10.24-6.144-10.24-10.752v-26.624c0-4.778667 5.973333-9.557333 10.410667-10.922667l17.066667-4.949333a116.736 116.736 0 0 1 12.629333-30.549334l-8.704-15.872a11.946667 11.946667 0 0 1 1.877333-13.312l18.773334-18.773333a11.946667 11.946667 0 0 1 8.021333-2.901333 10.922667 10.922667 0 0 1 5.290667 1.194666l15.701333 9.045334a111.274667 111.274667 0 0 1 30.890667-12.288v-1.536c-57.344-27.477333-132.608-53.930667-134.314667-54.272S609.962667 776.362667 597.333333 802.133333c-8.192 17.066667-22.528 18.261333-34.133333 2.901334l-34.133333-50.176c-6.997333-10.069333-14.336-10.752-22.869334-1.877334-1.194667 1.194667-12.288 11.093333-15.872 11.264s-14.677333-10.069333-16.042666-11.264c-8.533333-8.874667-14.336-9.557333-22.698667 1.877334s-24.234667 34.133333-32.768 45.056c-17.066667 22.869333-34.133333 18.944-42.837333 0-12.458667-29.184-34.133333-85.333333-34.133334-85.333334s-124.757333 43.178667-175.445333 76.970667A240.64 240.64 0 0 0 53.930667 988.16h658.261333z" fill="#457EC9" p-id="1544"></path></svg>