<?xml version="1.0" standalone="no"?><!DOCTYPE svg PUBLIC "-//W3C//DTD SVG 1.1//EN" "http://www.w3.org/Graphics/SVG/1.1/DTD/svg11.dtd"><svg t="1666316586273" class="icon" viewBox="0 0 1024 1024" version="1.1" xmlns="http://www.w3.org/2000/svg" p-id="1560" xmlns:xlink="http://www.w3.org/1999/xlink" width="300" height="300"><path d="M950.857143 0H73.142857C32.182857 0 0 32.182857 0 73.142857v877.714286c0 40.96 32.182857 73.142857 73.142857 73.142857h877.714286c40.96 0 73.142857-32.182857 73.142857-73.142857V73.142857c0-40.96-32.182857-73.142857-73.142857-73.142857z m-114.102857 851.382857c-2.925714 2.925714-7.314286 4.388571-10.24 4.388572s-7.314286-1.462857-10.24-4.388572L710.948571 746.057143c-54.125714 45.348571-122.88 73.142857-198.948571 73.142857-169.691429 0-307.2-137.508571-307.2-307.2s137.508571-307.2 307.2-307.2c62.902857 0 124.342857 19.017143 175.542857 55.588571 7.314286 4.388571 8.777143 13.165714 2.925714 20.48-4.388571 7.314286-13.165714 8.777143-20.48 2.925715-46.811429-32.182857-102.4-49.737143-159.451428-49.737143-153.6 0-277.942857 124.342857-277.942857 277.942857s124.342857 277.942857 277.942857 277.942857 277.942857-124.342857 277.942857-277.942857c0-59.977143-19.017143-117.028571-54.125714-165.302857-4.388571-5.851429-2.925714-16.091429 2.925714-20.48 5.851429-4.388571 16.091429-2.925714 20.48 2.925714 39.497143 52.662857 59.977143 117.028571 59.977143 182.857143 0 83.382857-33.645714 157.988571-87.771429 213.577143l105.325715 105.325714c7.314286 5.851429 7.314286 14.628571 1.462857 20.48zM687.542857 473.965714c1.462857 98.011429-159.451429 216.502857-165.302857 220.891429-2.925714 1.462857-5.851429 2.925714-8.777143 2.925714-2.925714 0-5.851429-1.462857-8.777143-2.925714-7.314286-4.388571-169.691429-122.88-168.228571-220.891429 0-29.257143 14.628571-54.125714 43.885714-73.142857 24.868571-16.091429 48.274286-21.942857 73.142857-16.091428 26.331429 5.851429 46.811429 26.331429 58.514286 40.96 11.702857-14.628571 32.182857-33.645714 58.514286-40.96 24.868571-5.851429 48.274286 0 73.142857 16.091428 27.794286 19.017143 43.885714 43.885714 43.885714 73.142857z" fill="#FA6D40" p-id="1561"></path><path d="M627.565714 425.691429c-17.554286-11.702857-33.645714-14.628571-49.737143-11.702858-32.182857 7.314286-52.662857 43.885714-52.662857 43.885715-5.851429 8.777143-20.48 8.777143-24.868571 0 0 0-20.48-36.571429-52.662857-43.885715-4.388571-1.462857-8.777143-1.462857-11.702857-1.462857-11.702857 0-24.868571 4.388571-38.034286 13.165715-20.48 13.165714-30.72 29.257143-30.72 49.737142-1.462857 64.365714 99.474286 155.062857 147.748571 191.634286 48.274286-36.571429 146.285714-125.805714 144.822857-190.171428-1.462857-21.942857-11.702857-38.034286-32.182857-51.2z" fill="#FA6D40" p-id="1562"></path></svg>