<?xml version="1.0" standalone="no"?><!DOCTYPE svg PUBLIC "-//W3C//DTD SVG 1.1//EN" "http://www.w3.org/Graphics/SVG/1.1/DTD/svg11.dtd"><svg t="1666314289452" class="icon" viewBox="0 0 1024 1024" version="1.1" xmlns="http://www.w3.org/2000/svg" p-id="6428" xmlns:xlink="http://www.w3.org/1999/xlink" width="300" height="300"><path d="M402.944 216.1152h212.06016a49.152 49.152 0 1 0 0-98.3552H402.944a49.152 49.152 0 1 0 0 98.3552z m435.712-72.62208h-113.53088a112.0768 112.0768 0 0 1-110.14144 135.68H402.944a112.0768 112.0768 0 0 1-110.14656-135.68H185.344A103.33696 103.33696 0 0 0 81.92 246.52288v556.6976A103.33696 103.33696 0 0 0 185.344 906.24h653.312a103.33184 103.33184 0 0 0 103.424-103.01952V246.52288a103.33696 103.33696 0 0 0-103.424-103.02976zM639.19616 609.28h-95.89248v87.90016a34.40128 34.40128 0 0 1-68.80768 0V609.28H378.60352a34.2784 34.2784 0 1 1 0-68.55168h95.89248V452.84864a34.40128 34.40128 0 0 1 68.80768 0v87.90016h95.89248a34.2784 34.2784 0 1 1 0 68.5312z" fill="#5288F5" p-id="6429"></path></svg>