<?xml version="1.0" standalone="no"?><!DOCTYPE svg PUBLIC "-//W3C//DTD SVG 1.1//EN" "http://www.w3.org/Graphics/SVG/1.1/DTD/svg11.dtd"><svg t="1666314550887" class="icon" viewBox="0 0 1024 1024" version="1.1" xmlns="http://www.w3.org/2000/svg" p-id="7163" xmlns:xlink="http://www.w3.org/1999/xlink" width="300" height="300"><path d="M214.144 552.96c27.733333 0 50.304 22.528 50.304 50.304v247.552a50.304 50.304 0 1 1-100.608 0V603.306667c0-27.776 22.528-50.304 50.304-50.304z m119.04 0c27.733333 0 50.261333 22.528 50.261333 50.304v247.552a50.304 50.304 0 1 1-100.608 0V603.306667c0-27.776 22.528-50.304 50.346667-50.304z m511.36-218.069333c30.549333 57.386667 51.882667 166.528 39.808 234.922666-12.032 68.394667-34.133333 85.034667-82.346667 85.034667h-161.536l-15.018666 204.373333c-7.68 27.946667-24.576 41.898667-50.773334 41.898667-26.154667 0-41.6-13.952-46.336-41.898667l15.957334-251.861333c6.954667-31.189333 21.333333-46.805333 43.178666-46.805333h159.573334c2.901333-46.933333-1.834667-83.925333-14.208-111.018667l-0.554667-1.152a305.749333 305.749333 0 0 0 75.904-53.632 40.96 40.96 0 0 0-56.917333-58.965333c-45.184 43.648-108.16 67.242667-190.08 69.930666l-54.144-62.976 71.765333-14.72 41.386667 49.92 122.282666-78.336c47.658667-14.72 81.664-2.986667 102.058667 35.285334zM152.106667 686.165333v167.253334c0 12.288 3.584 23.722667 9.685333 33.322666H122.88v-200.533333h29.226667z m272.64 0v200.576h-39.253334c4.864-7.68 8.106667-16.512 9.258667-26.026666l0.426667-7.253334-0.042667-167.253333h29.653333z m459.605333-4.821333v200.533333h-222.805333v-200.533333h222.805333z m-483.413333-218.709333c6.058667 7.594667 14.890667 13.056 25.258666 14.762666 7.125333 1.152 14.208 2.261333 21.248 3.242667 0.341333 10.026667 0.512 20.48 0.512 31.36 0 96.298667-3.754667 145.877333-11.264 148.736-14.208 16.298667-28.032 18.474667-41.514666 6.570667v-66.688c0-11.349333-3.072-21.973333-8.405334-31.146667a15.36 15.36 0 0 0 2.944 0.341333c6.4 0.128 11.818667-2.517333 12.117334-5.888l1.152-17.536 0.725333-16.64c0.170667-5.376 0.256-10.666667 0.256-15.786666l-0.170667-14.848-0.597333-13.994667-1.109333-13.141333-1.194667-9.386667z m-38.613334-181.205334c23.125333 8.277333 41.557333 25.770667 55.296 52.565334l49.493334-11.434667-2.730667-12.032 79.786667-18.389333 7.594666 32.768-79.786666 18.432-2.517334-10.794667-47.36 10.88c6.656 15.146667 12.032 32.810667 16.128 52.992a40.874667 40.874667 0 0 0-44.8 29.312l-0.426666 1.834667v-0.042667a102.229333 102.229333 0 0 0-8.96-19.669333c-1.706667-2.773333-6.741333-4.48-11.989334-4.266667l-2.645333 0.298667c-6.101333 1.024-9.514667 4.48-7.552 7.68 7.381333 12.16 12.586667 28.8 15.658667 49.877333l1.450666 11.946667 1.024 12.8c0.256 4.394667 0.426667 8.96 0.554667 13.653333l0.170667 14.592c0 2.517333 0 5.034667-0.085334 7.637333l-0.512 15.872-0.896 16.768-0.298666 4.096a62.037333 62.037333 0 0 0-105.301334 24.32 62.037333 62.037333 0 0 0-87.808-37.717333l-0.341333-7.466667-0.469333-15.872-0.085334-15.018666 0.384-14.122667 0.341334-6.741333 1.024-12.8 1.450666-11.946667c3.072-21.077333 8.277333-37.717333 15.658667-49.834667 1.621333-2.688-0.426667-5.546667-4.736-7.04l-2.816-0.682666-2.645333-0.298667c-5.248-0.213333-10.325333 1.493333-11.989334 4.266667-8.106667 13.354667-13.696 31.402667-16.896 54.101333l-1.194666 10.026667-1.066667 13.141333-0.64 13.994667-0.085333 3.626666-0.042667 3.712v15.317334l0.512 16.213333 0.213333 4.181333 0.213334 4.224 1.194666 17.493334v0.426666a61.866667 61.866667 0 0 0-11.392 30.336l-0.298666 5.973334v61.226666l-1.322667 1.28c-14.122667 12.330667-31.189333 17.237333-49.066667-12.8a1927.68 1927.68 0 0 1-3.2-108.842666V512c0-126.677333 28.501333-203.52 85.504-230.570667h178.346667z m355.2 175.530667l3.029334 62.805333-21.077334 40.746667-21.589333-40.746667 5.632-51.456c11.690667-3.370667 23.04-7.125333 34.005333-11.349333z m84.309334-113.066667a30.72 30.72 0 0 1-0.768 43.477334c-83.925333 81.066667-209.194667 106.922667-373.205334 79.914666a30.72 30.72 0 0 1 9.984-60.629333c146.517333 24.149333 252.501333 2.218667 320.554667-63.488a30.72 30.72 0 0 1 43.434667 0.768z m-264.96-46.549333l-9.344 2.133333 4.010666 17.109334-9.984 2.304-3.968-17.152-8.106666 1.877333 3.968 17.194667-9.984 2.304-3.968-17.194667-8.533334 1.962667 3.925334 17.152-9.984 2.304-3.968-17.152-7.68 1.834666 6.058666 26.112 63.573334-14.677333-6.016-26.112z m25.045333-5.461333l5.674667 24.533333-11.52 2.645333-5.674667-24.490666 11.52-2.688z m144.213333-183.594667a92.16 92.16 0 1 1 0 184.32 92.16 92.16 0 0 1 0-184.32zM270.122667 75.605333a92.16 92.16 0 1 1 0 184.32 92.16 92.16 0 0 1 0-184.32z" fill="#0095FF" p-id="7164"></path></svg>